# xmcd
# 
# Track frame offsets:
#     150
#     13783
#     26294
#     41051
#     54141
#     67726
#     81331
#     97428
#     107648
#     122802
#     133405
#     145164
#     158369
#     172775
#     184690
#     199028
#     211058
#     223833
#     236382
#     248554
# 
# Disc length: 3489
# 
# Revision: 1
# Processed by: cddbd v1.5.2PL0 Copyright (c) Steve Scherf et al.
# Submitted via: fre:ac v1.0.17
# 
DISCID=0c0d9f14
DTITLE=Various Artist - Got The Blues
DYEAR=0
DGENRE=Blues
TTITLE0=B. B. King - Rock Me Baby
TTITLE1=Albert King - Born Under A Bad Sign
TTITLE2=Chuck Berry - Reelin' And Rockin'
TTITLE3=J. J. Cale - Cocaine
TTITLE4=Elmore James - Dust My Broom
TTITLE5=Robert Johnson  - Sweet Home Chicago
TTITLE6=Ramsey Lewis Trio - Wade In The Water
TTITLE7=Roscoe Holcomb - Mississippi Heavy Water Blues
TTITLE8=Blind Willie Johnson - Dark Was The Night, Cold Was The Ground
TTITLE9=Sonny Boy Williamson - Fattening Frogs For Snakes
TTITLE10=John Fahey - Sunflower River Blues
TTITLE11=Billie Holiday - God Bless The Child
TTITLE12=Ruth Brown - 5-10-5 Hours
TTITLE13=Memphis Minnie - Looking The World Over
TTITLE14=Lowell Fulson - Reconsider Baby
TTITLE15=Little Walter - My Babe
TTITLE16=Jimmy Reed - Bright Lights, Big City
TTITLE17=Jimmy McCracklin - The Walk
TTITLE18=Memphis Slim - Mother Earth
TTITLE19=Big Maceo Merriweather - Worried Life Blues
EXTD=
EXTT0=
EXTT1=
EXTT2=
EXTT3=
EXTT4=
EXTT5=
EXTT6=
EXTT7=
EXTT8=
EXTT9=
EXTT10=
EXTT11=
EXTT12=
EXTT13=
EXTT14=
EXTT15=
EXTT16=
EXTT17=
EXTT18=
EXTT19=
PLAYORDER=
